ply
format ascii 1.0
element vertex 1043
property float x
property float y
property float z
property uchar red
property uchar green
property uchar blue
end_header
56.0485 77.1382 39.1203 163 154 175
58.6235 79.3203 33.1838 161 153 169
81.4527 90.4972 34.3243 154 145 167
110.577 112.463 18.5365 154 143 167
104.708 116.167 26.9375 150 139 168
80.2075 85.4492 35.0323 159 150 166
93.0541 109.15 24.1467 159 150 172
106.885 125.829 19.3456 158 147 180
92.5895 128.715 9.61542 146 137 170
78.8878 90.7225 31.6551 155 146 170
63.2211 78.9054 36.1872 169 160 181
127.18 106.36 26.7939 155 143 165
127.945 105.884 25.8493 155 143 165
107.269 119.486 23.5752 152 141 169
124.758 109.688 31.4351 154 143 170
92.5201 128.758 9.60291 150 141 160
73.5928 91.5404 46.2615 153 144 163
77.1163 97.3325 29.054 152 143 171
113.508 111.122 28.0185 148 137 167
74.0151 94.7224 18.9367 161 152 170
95.2693 111.387 27.0827 158 149 170
111.398 116.608 19.961 152 141 166
81.8702 87.738 34.0468 153 144 166
107.54 105.86 20.5556 156 144 169
90.6561 126.608 9.53984 156 147 178
95.2858 129.724 8.29086 155 143 171
99.4159 127.063 2.66214 157 145 172
101.721 116.156 25.7211 157 148 173
61.1905 83.6507 29.9958 156 147 161
109.481 126.905 11.1272 154 143 163
114.085 116.401 17.4808 152 141 166
77.5955 97.9444 19.6374 153 144 171
82.9052 90.0625 39.5732 156 147 161
118.865 107.174 31.6759 152 141 168
121.853 118.628 19.9752 147 134 162
119.534 115.588 22.2271 146 135 163
59.5227 84.716 30.3639 156 147 167
120.838 114.804 20.5207 149 138 163
52.8287 81.4101 32.656 161 152 173
114.968 113.812 21.3432 150 139 163
120.842 119.215 21.2875 147 134 162
59.6663 84.4977 27.4259 158 149 172
84.0152 92.9539 43.0554 151 142 174
59.3028 84.9479 30.393 157 148 172
85.7604 103.767 15.1285 157 148 173
93.2812 112.064 20.0275 153 144 166
118.627 107.327 32.1036 152 141 168
60.2938 76.9968 40.7196 158 149 167
98.5451 100.685 20.666 163 154 169
97.9628 100.972 28.5539 156 144 167
72.0346 91.8119 27.5075 163 154 175
64.9131 80.7745 33.1459 154 145 168
96.6403 102.111 23.7239 154 145 168
79.0388 89.6655 44.9223 153 144 163
90.5079 105.508 21.8442 155 146 164
109.69 106.41 22.5831 155 143 169
98.8595 92.7258 43.7746 159 147 167
84.0466 102.401 13.5556 161 152 172
82.9824 101.823 15.5435 162 153 176
83.7153 101.933 14.4578 159 150 174
101.886 115.237 12.6802 157 148 171
83.7007 100.462 13.7879 166 157 176
95.716 112.751 21.3465 153 144 168
64.6154 93.8527 0.784398 157 148 175
99.7067 105.784 23.3738 152 143 170
100.574 109.377 13.757 157 148 168
111.287 129.813 10.1962 153 144 165
96.2835 112.893 18.1359 157 148 169
75.119 112.663 6.52385 166 157 171
102.235 102.987 25.8267 156 147 168
90.2288 88.5367 40.2534 154 145 176
122.072 114.605 22.2022 149 138 164
66.7608 92.2035 26.036 165 156 174
56.0418 80.1324 26.0975 160 151 172
123.094 117.175 27.3992 142 129 162
61.1556 97.1736 6.52003 168 159 179
96.7832 112.875 23.1514 154 145 169
123.993 116.636 22.4636 153 140 166
57.1734 82.5171 23.9636 154 145 167
125.07 115.226 25.2169 149 138 163
70.5002 102.974 9.73302 158 149 172
56.1315 83.6497 26.0243 151 142 164
107.528 104.172 27.2467 158 146 169
99.7244 104.676 24.3704 159 150 171
103.663 110.928 13.2404 151 140 170
115.805 101.704 28.5619 151 140 157
82.7428 98.8739 27.4954 156 147 173
72.011 86.4707 51.505 152 143 172
101.359 113.562 16.4172 150 141 166
99.5945 104.632 26.4695 159 150 170
108.033 132.968 13.6164 153 144 165
93.4652 126.296 10.8779 154 143 168
98.8774 124.717 13.1309 156 145 168
116.169 104.229 23.7497 151 140 166
101.237 112.566 16.6591 150 139 164
75.6084 89.9993 34.9711 156 147 165
85.347 104.703 13.4926 157 148 172
78.7439 99.4888 10.2977 159 150 170
110.616 106.335 27.3258 154 142 165
73.1307 93.3567 34.3013 153 144 167
55.7088 76.8427 28.9939 155 146 171
83.1821 103.294 27.7261 163 154 177
85.2298 113.387 8.89687 157 148 167
84.0368 110.427 9.9012 159 150 172
110.9 101.909 24.1533 154 142 165
94.5317 126.447 9.9869 156 145 167
82.0661 111.642 14.5594 156 147 166
82.2103 102.088 26.7403 161 152 175
75.8013 89.246 32.7801 159 150 171
73.9836 91.0586 34.6741 155 146 159
110.585 109.331 26.409 156 144 170
52.2982 76.4947 32.9659 164 156 173
86.6539 99.6129 28.2328 157 148 169
103.412 124.652 19.3407 159 150 179
85.928 111.157 6.09163 155 146 171
98.7406 123.918 12.9481 149 137 161
87.6134 98.2168 26.0122 157 148 170
76.1518 100.353 14.8721 160 151 170
82.1397 113.971 12.8473 158 149 171
91.3456 107.744 15.8912 149 140 157
116.884 102.899 31.4083 155 144 164
88.3004 99.1963 19.1426 159 150 174
93.4485 103.824 27.1202 152 143 164
102.544 121.546 6.64755 159 147 169
103.303 132.479 1.69833 159 147 169
58.3739 82.059 33.5289 159 151 167
117.103 100.897 32.0502 150 138 166
86.8227 103.417 7.73733 161 152 174
92.477 105.228 30.681 151 142 160
75.5205 89.6421 32.3403 146 137 162
105.704 130.968 3.25639 155 144 173
72.2028 80.9029 48.2502 158 149 171
64.2296 90.1097 27.5417 159 150 168
110.824 105.166 40.8669 151 139 161
57.3432 83.1735 36.2785 165 157 176
66.7171 90.4626 9.85124 152 143 170
83.491 97.0752 34.7744 155 146 168
102.038 132.107 5.28176 157 148 179
70.7405 98.817 13.3603 159 150 172
70.7685 95.7023 27.7115 156 147 170
90.1997 104.391 26.5259 157 148 167
65.3059 84.9277 32.0231 155 146 167
92.2926 121.103 11.5715 153 144 166
87.1847 113.743 11.8868 155 146 166
88.3098 122.708 10.4834 158 149 166
94.1843 112.526 14.4209 159 150 175
90.6827 96.175 40.949 153 141 166
74.4311 94.5216 10.8122 154 145 168
64.0171 91.4267 26.9544 163 154 175
88.9373 112.477 9.6961 157 148 166
91.1822 113.643 7.72474 149 140 165
90.229 114.671 11.8706 156 147 169
59.2462 80.4828 35.4125 165 157 177
58.9448 90.2585 2.27261 144 136 165
67.1647 93.1424 23.4314 148 139 155
116.006 121.862 14.7293 155 144 172
99.6098 100.85 22.9146 154 142 167
60.7872 94.3537 0.0600144 161 153 179
60.0207 88.0667 21.9618 162 153 176
71.7647 82.082 43.5692 155 146 171
86.6014 100.414 31.0807 163 154 171
114.574 98.3851 33.736 150 138 159
88.8041 127.447 3.31682 151 142 165
61.1143 91.6134 4.19557 161 153 161
90.1175 126.608 1.21726 152 143 167
60.0401 89.1398 5.3132 156 148 162
107.298 97.5131 41.0565 146 135 160
97.2528 121.429 15.2599 156 147 172
61.4046 87.7461 8.43955 153 145 161
77.5043 99.3221 15.0888 157 148 168
95.3995 94.4063 37.0993 154 142 169
81.0273 97.8192 20.3378 158 149 170
122.077 114.602 22.5567 150 139 166
100.528 99.2331 30.4521 154 142 165
81.5974 84.7552 63.6513 156 147 169
91.4271 105.572 23.4754 159 150 170
91.8832 117.512 9.64168 160 151 168
103.388 96.0629 37.3079 152 141 163
49.8517 81.6479 21.6607 155 146 170
77.2779 101.539 20.3064 161 152 172
96.2417 126.864 2.70356 159 150 173
66.7409 89.4412 29.7928 159 150 172
107.591 102.597 40.9773 151 140 168
65.941 90.4589 32.423 162 153 173
65.7162 96.9062 0.436073 166 157 179
101.133 123.149 14.8369 148 137 167
84.8144 111.568 14.5639 155 146 168
98.9659 102.959 35.7379 151 139 167
91.1171 112.926 19.3254 156 147 168
101.006 123.228 15.8654 154 143 172
84.0483 99.9265 17.4154 167 158 179
92.8263 110.117 15.232 154 145 170
96.4684 116.514 15.0419 157 148 172
55.3812 81.9648 33.3506 157 148 170
110.601 95.0968 35.8198 149 138 162
112.112 101.086 32.9014 153 142 167
100.75 116.593 10.5173 158 149 165
112.927 99.7466 30.4574 154 142 168
104.046 121.344 11.0637 157 146 163
86.7311 131.588 4.28799 168 159 184
97.9801 115.499 12.0559 156 147 169
102.665 102.128 33.9454 155 143 166
89.6664 90.2788 45.5047 152 143 167
102.937 94.5601 32.6959 155 144 164
75.9672 100.942 20.9826 159 150 166
62.0151 91.0686 22.5712 145 136 161
75.6022 102.143 15.7381 158 149 176
89.9629 127.947 0.507142 164 155 176
66.2837 94.184 15.933 157 148 172
65.8291 89.3355 18.8415 149 140 170
85.2647 95.5633 14.1616 155 146 169
65.6014 66.3098 20.0672 0 0 0
65.4455 66.4268 20.4295 0 0 0
87.3184 82.8435 24.8321 0 0 0
67.4709 69.6025 15.7361 0 0 0
87.9135 90.0566 25.0027 0 0 0
84.4493 87.8528 19.9942 0 0 0
97.0695 106.24 17.328 172 159 151
69.9323 70.1793 23.0886 0 0 0
89.7295 89.2644 18.9359 0 0 0
83.7153 91.6167 16.9371 0 0 252
94.8166 127.406 6.2739 177 164 156
95.7149 107.273 18.0328 170 157 149
96.6435 106.888 16.3702 178 165 157
77.4615 91.6246 12.4808 0 0 0
113.626 110.075 27.3136 188 175 167
94.5468 127.49 6.51872 177 164 156
115.208 109.496 25.2935 172 159 151
105.352 107.371 23.4453 179 166 158
99.8172 108.186 19.7242 177 164 156
67.4541 77.0721 17.6178 0 0 0
113.008 113.93 22.8622 177 164 156
94.758 93.3351 28.9976 21 86 176
81.8022 94.3269 11.8869 55 50 46
105.98 107.536 18.7941 175 162 154
66.3944 77.4668 16.5931 0 0 0
65.8148 78.0087 14.9425 0 0 0
89.7938 86.7906 27.3809 0 0 0
103.509 110.84 25.3131 178 165 157
90.1509 105.99 10.9753 175 162 154
96.7381 109.617 14.427 171 158 149
76.9539 87.2461 18.3653 0 0 0
90.497 102.144 13.3604 179 166 158
80.8746 86.2923 20.4127 0 0 0
93.7361 95.1765 23.3898 206 68 67
85.0803 96.9335 9.6227 219 219 220
71.0297 74.3916 21.0875 0 0 0
92.6509 86.3515 34.4786 0 0 0
93.5649 85.6672 34.0547 0 0 0
116.234 122.188 16.6163 180 167 159
90.0178 93.8022 20.5076 0 0 0
61.6433 74.5877 5.2278 0 0 0
112.01 104.982 26.5438 168 155 147
88.6038 93.9098 22.3933 0 0 0
93.4866 85.709 34.0627 0 0 0
75.169 69.6712 26.3715 0 0 0
115.003 118.312 28.657 175 162 154
112.035 106.965 34.7365 174 161 152
64.6013 93.8661 1.15451 0 0 0
74.9689 68.1948 28.0427 0 0 0
84.2866 100.766 13.2376 177 164 156
86.4424 99.7351 9.68781 182 169 161
99.8302 110.773 17.9142 172 162 153
85.0555 99.3586 11.4584 0 0 0
93.1782 103.49 17.2113 179 166 157
91.4758 87.6009 30.127 0 0 127
110.08 111.5 22.6492 172 159 150
100.212 111.122 15.4991 180 167 159
97.3214 112.176 16.5371 175 165 156
92.9736 102.846 20.1175 175 162 153
116.452 129.067 17.4222 178 165 157
113.784 112.806 23.113 176 163 155
102.223 111.182 13.7593 173 160 152
84.2544 109.422 2.80066 181 168 160
110.002 110.402 21.8888 177 164 155
80.5663 84.9917 23.1543 0 0 0
94.1399 103.557 16.8574 172 159 150
72.1553 87.0398 15.5478 0 0 0
101.621 103.431 26.3741 174 161 153
114.577 102.54 29.4381 173 160 151
79.2064 85.8959 19.1246 0 0 0
80.4502 98.493 8.94452 224 0 0
107.975 95.71 32.6312 177 164 155
99.8197 114.599 18.7637 184 171 163
109.976 106.768 27.8783 176 163 154
108.558 95.4493 31.4713 171 158 149
87.491 107.55 4.93589 186 173 165
111.144 130.454 15.3669 179 166 158
62.3155 76.9269 13.3646 0 0 0
109.245 103.061 26.0801 174 161 153
101.64 104.398 20.3909 174 161 153
88.6832 110.071 3.69146 183 170 162
79.7524 97.2825 7.61641 0 0 0
87.553 102.97 10.2777 179 166 158
103.987 112.405 14.7001 178 168 159
89.7916 95.7672 22.479 127 255 214
67.6899 84.6903 5.4161 0 0 0
66.2583 73.5332 18.7668 0 0 0
123.71 116.078 31.2497 168 155 146
74.0897 95.8353 7.03577 0 0 0
89.0975 97.1023 16.736 121 35 64
84.6268 76.2739 30.593 0 0 0
85.7136 111.309 7.63923 180 167 159
105.547 96.1188 34.081 173 160 151
58.3334 71.344 10.1462 0 0 0
87.3914 103.206 10.7249 179 166 158
95.0049 85.8229 36.2961 0 0 0
85.8467 111.254 7.43569 180 167 159
108.453 107.359 29.3101 173 160 151
78.3913 77.679 32.8418 0 0 0
93.193 115.301 1.93154 178 168 159
91.9501 94.7068 18.7466 0 0 0
104.888 131.659 13.0084 177 164 156
94.3587 109.899 5.58618 179 166 158
90.4537 91.2581 22.862 0 0 0
109.613 108.6 32.6035 171 158 149
86.9886 97.5266 11.7894 0 127 27
71.2878 78.8633 20.6025 0 0 0
101.872 102.985 22.5674 180 167 158
79.712 87.5544 10.9562 0 0 0
99.6794 104.709 24.0092 176 163 155
97.0591 102.305 16.2643 167 154 145
80.0402 73.8842 28.4836 0 0 0
96.3941 110.975 11.4415 178 165 157
94.2178 103.476 18.7703 182 169 160
103.955 123.987 6.31031 178 165 157
100.029 89.7744 32.3414 0 0 0
100.769 133.837 8.39052 178 165 157
63.7521 85.7869 4.80601 0 0 0
60.3989 67.0369 16.2469 0 0 0
92.6692 111.924 7.06621 179 166 158
81.8263 105.442 7.53091 174 164 154
100.603 123.649 10.1562 179 166 158
61.4349 89.2683 3.62792 0 0 0
94.8584 109.176 12.5989 175 162 154
99.4335 100.021 18.9143 175 162 154
63.3664 73.1445 17.4877 0 0 0
60.1503 90.0683 1.0242 0 0 0
100.507 122.816 10.3065 169 156 148
102.649 119.076 8.24595 177 164 156
87.7475 109.407 9.30743 178 165 157
93.1885 109.856 15.0363 176 163 155
88.9191 112.33 0.822458 181 168 160
95.6872 112.895 12.2882 178 165 157
72.6674 87.9221 13.3679 0 0 0
95.0692 114.643 11.0861 182 169 161
80.4234 97.4398 5.70101 27 169 121
105.203 117.975 11.4313 177 164 156
109.673 102.023 34.0696 176 163 154
91.8381 128.39 4.67824 178 165 157
98.9619 120.332 13.2357 177 164 156
94.4659 110.544 13.6249 175 162 154
97.1004 93.0528 33.4049 208 0 0
112.679 100.691 31.2715 177 164 155
75.9237 87.0003 15.1321 0 0 0
111.271 124.453 21.1971 173 160 152
103.825 121.48 11.4777 181 168 160
86.4009 107.345 10.034 177 164 156
68.9903 69.9042 15.6603 0 0 0
68.7637 86.9731 11.5958 0 0 0
66.1727 68.9675 20.2153 0 0 0
96.4252 108.648 18.3751 173 160 152
98.3601 118.614 13.9812 175 162 154
100.659 87.4942 39.9838 0 0 0
72.1229 90.2116 3.55809 0 0 0
98.5105 119.921 6.77676 174 161 153
99.0204 93.0111 29.2994 188 68 16
101.375 134.263 4.50551 175 162 154
56.4895 71.6605 6.64452 0 0 0
98.9729 93.8756 32.8149 0 0 0
71.906 82.0854 19.074 0 0 0
101.305 121.133 14.7225 174 161 153
63.7487 71.0195 18.1687 0 0 0
63.8011 70.9813 17.7499 0 0 0
89.55 128.907 2.21744 177 167 158
75.3605 81.0352 13.3934 0 0 0
117.757 129.292 20.0511 177 164 156
98.3695 119.043 3.2336 177 164 156
90.3668 130.128 3.97628 182 169 161
56.344 73.2009 6.77133 0 0 0
82.3471 76.5309 33.3354 0 0 0
71.3156 92.6555 9.86151 0 0 0
63.2824 68.0048 23.5172 179 166 158
64.5836 71.6805 21.2284 185 172 163
105.518 121.229 33.3872 178 165 157
81.6602 95.3176 26.533 182 169 161
104.833 121.238 34.5052 174 161 153
104.193 126.949 23.0762 186 173 164
93.2718 108.288 21.8221 176 163 154
97.069 123.921 1.537 177 164 156
76.7096 92.0387 13.7679 183 170 161
77.5165 83.9534 32.9598 175 162 154
87.9802 99.9323 19.8552 179 166 158
87.7171 98.2066 36.7605 177 164 155
65.36 78.3163 15.5953 183 170 161
71.2313 77.2285 23.0286 186 173 164
66.8267 77.4957 18.5881 174 161 152
101.298 117.503 33.208 176 163 154
65.33 78.0999 16.8681 184 171 162
78.9173 94.2923 11.7794 174 161 153
93.3942 110.767 30.0569 176 163 154
90.3118 93.1384 49.925 179 166 157
65.4732 78.0905 17.7174 177 164 155
89.9346 96.9156 36.9628 172 159 150
90.991 94.2598 47.1618 174 161 152
79.4312 95.5644 16.0392 178 165 157
99.5165 109.182 45.2918 172 159 150
81.8491 98.5485 14.7731 177 164 156
76.361 87.5889 19.6026 174 161 153
98.0825 116.471 27.5021 177 164 155
94.6854 110.44 18.2085 174 161 152
59.7343 67.5493 18.0798 177 167 158
78.0597 86.443 27.0693 175 162 153
57.0735 69.4409 13.9086 184 174 164
70.5828 74.7711 33.3209 185 172 163
84.7252 91.7109 36.1762 178 165 156
78.4269 86.3775 26.4441 175 162 153
79.0118 87.3551 23.4309 174 161 152
78.973 86.28 24.8645 179 166 157
68.0755 75.6958 25.8776 182 169 160
69.667 75.3138 23.2799 182 169 160
83.1245 100.295 14.789 176 163 155
88.7717 98.8977 31.6409 174 161 152
89.2765 94.5289 38.5632 180 167 158
94.2938 114.208 26.0896 179 166 157
97.4874 107.862 44.4738 173 160 151
64.3526 74.8714 22.722 181 168 159
87.0191 103.214 11.6461 178 165 157
104.386 130.204 8.17927 173 160 151
87.459 103.172 11.0272 178 165 157
104.266 122.705 33.4252 173 160 152
106.317 118.837 42.6747 176 163 155
99.0002 118.643 31.2627 176 163 154
92.7813 109.275 22.1646 177 164 155
93.9907 113.522 25.3194 178 165 156
95.5123 97.6914 53.4388 182 169 160
105.692 131.791 17.3085 180 167 158
60.9908 69.9667 20.4325 188 175 167
85.5161 100.204 22.9057 181 168 160
93.2072 103.626 37.3593 178 165 157
100.438 118.606 29.419 174 161 152
94.625 101.033 50.8754 170 157 148
91.6653 95.8958 39.3123 173 160 151
100.981 114.824 36.9214 172 159 150
76.7328 87.3264 23.4696 179 166 157
89.1632 104.541 25.9928 177 164 156
89.0315 93.2211 46.32 175 162 153
104.934 129.234 19.1585 174 161 152
64.7308 70.0962 21.6979 181 168 160
77.8382 87.1324 21.5576 176 163 154
104.095 121.672 32.068 176 163 155
85.3063 98.9443 23.5506 179 166 158
95.8441 96.778 57.0494 175 162 153
87.0802 100.753 28.7325 178 165 157
88.8523 98.0392 29.4021 182 169 160
106.405 134.113 19.6198 178 165 156
106.654 129.601 21.9909 174 161 152
88.2394 107.222 3.50986 179 166 158
98.1944 104.596 44.9477 176 163 154
106.279 126.226 40.0587 170 157 148
70.7106 79.2377 21.8829 180 167 158
89.7002 102.682 20.8798 181 168 160
107.875 129.12 27.2334 178 165 156
104.066 130.84 6.8555 182 169 160
76.2353 89.5259 16.8419 186 173 165
99.2716 125.456 13.3255 180 167 159
76.6519 97.1652 7.10881 179 166 157
107.349 125.555 38.6079 173 160 151
94.5781 109.399 21.6044 175 162 153
105.897 126.066 30.4752 178 165 157
102.747 123.663 19.2945 182 169 161
93.256 109.828 15.5163 178 165 157
90.6023 105.062 24.5045 181 168 160
90.5087 105.906 25.1221 179 166 157
98.2183 125.053 4.13458 175 162 154
93.3617 106.594 35.5634 181 168 160
63.598 83.2645 0.779023 181 168 159
70.5331 84.1478 14.4948 179 166 158
66.6659 82.9118 9.56807 178 165 156
76.6951 93.1622 9.97298 182 169 160
71.4707 71.6556 36.7735 178 168 159
65.355 71.4766 20.2497 183 170 161
64.4811 80.8955 1.76742 178 165 156
108.924 119.827 51.3592 174 161 152
107.9 130.522 31.0907 178 165 156
86.6521 105.927 10.8299 180 167 159
86.99 107.319 4.79836 178 165 156
106.375 127.747 31.8021 177 164 155
91.7096 95.6238 50.4539 181 168 159
84.7978 99.8568 20.6332 180 167 159
100.394 123.723 10.9908 179 166 158
91.2982 90.6633 52.0263 181 168 159
76.174 88.8551 17.703 183 170 162
89.074 102.421 28.687 176 163 154
65.8015 90.1846 3.79682 179 166 157
86.0369 109.039 6.10988 176 163 155
95.3393 120.51 1.70258 176 163 155
90.0608 98.7501 29.8963 180 167 158
98.932 112.533 43.8133 172 159 150
65.739 73.8538 15.7319 186 173 164
95.8126 105.394 38.0685 175 162 153
97.0117 121.818 1.9428 175 162 154
73.3278 73.1634 37.4338 175 162 153
75.8074 94.4555 2.59466 188 175 166
68.4119 69.5001 32.5147 180 167 159
68.1227 84.419 4.82327 184 171 162
88.7695 100.572 26.987 174 161 153
78.2182 89.4141 16.1659 182 169 161
96.6558 115.813 17.4789 175 162 153
100.979 125.462 10.1997 178 165 157
99.716 129.315 3.40202 177 164 156
73.2368 87.4492 18.148 178 165 156
96.5637 115.558 22.8783 178 165 156
105.315 133.199 1.33683 180 167 158
87.8018 100.676 28.2008 176 163 155
101.438 129.594 10.8958 174 161 153
92.9766 120.551 1.89157 173 160 152
61.2917 80.7555 1.40659 185 172 163
95.4415 122.084 7.65815 175 162 154
95.4291 119.166 8.1057 179 166 157
103.642 133.726 3.04918 184 171 163
81.6235 97.2556 18.3141 179 166 158
105.206 112.223 60.3139 180 167 158
88.1741 100.636 27.8404 174 161 153
94.3472 98.1504 49.1321 170 157 148
73.684 81.6749 21.2521 180 167 159
95.2139 99.9484 45.1749 173 160 151
100.849 125.885 8.76833 173 160 152
67.7702 76.6353 20.8321 174 161 152
98.2304 99.7026 55.7169 177 164 155
91.9048 120.428 3.83609 179 166 157
105.109 131.672 13.3753 175 162 153
64.5788 70.1328 22.6205 181 168 160
97.1524 102.433 54.0286 177 164 155
102.574 133.986 0.633111 173 160 151
109.448 131.667 29.6507 173 160 151
93.1328 119.867 3.24797 179 166 158
69.6212 87.3288 9.21611 181 168 159
97.6888 123.732 15.1982 177 164 156
95.5448 100.12 49.1256 173 160 151
73.0022 91.7035 6.89223 195 182 173
97.0695 121.429 6.57872 172 159 151
73.3896 92.1449 5.24148 176 163 154
71.7779 86.8941 9.13401 180 167 158
80.7123 94.3047 17.5829 177 164 156
69.8538 83.2162 9.12205 181 168 159
72.2673 90.1283 3.60965 177 164 155
106.076 128.264 29.3547 173 160 151
73.951 88.1503 18.3303 188 175 166
64.0563 81.706 7.92245 187 174 165
73.9348 87.072 20.0802 178 165 157
85.6943 106.008 11.5119 173 160 152
101.676 132.909 6.18045 178 165 157
77.3581 87.4148 18.4823 183 170 161
71.5661 86.9326 9.69487 179 166 158
42.3081 81.8931 76.2572 69 69 81
137.986 79.7916 71.5057 19 147 196
86.0789 133.52 61.1321 70 49 20
87.955 133.777 58.3177 76 59 41
101.69 107.689 8.48486 58 43 48
103.486 106.604 7.76065 59 52 59
136.136 61.7792 70.4841 39 103 139
49.8805 137.952 104.508 67 56 52
74.6743 92.3507 17.6547 68 70 82
148.853 58.7776 142.143 59 64 84
137.686 76.5141 60.0859 30 153 210
92.0014 103.02 9.65219 14 141 194
84.5093 103.094 23.2966 21 148 203
77.095 94.5496 16.0493 68 70 82
151.515 74.3683 83.3781 43 148 203
157.815 90.987 72.7141 17 149 198
71.3918 132.216 74.42 56 42 41
130.748 76.8345 42.4252 61 63 75
43.6271 128.904 96.0994 61 55 65
46.0061 97.8885 47.1748 75 70 92
88.102 103 10.2891 17 151 204
113.327 64.4444 40.0598 74 74 86
90.2399 102.905 6.64677 11 145 198
93.0119 106.122 17.6164 57 59 71
126.917 77.4427 36.7085 60 71 91
127.023 96.2649 26.7765 17 147 196
83.4425 103.207 18.7601 12 146 199
145.478 94.6073 46.0309 21 142 197
118.243 96.5964 30.209 12 148 196
87.7574 93.5379 1.67559 65 66 84
97.1125 69.5499 55.0759 71 73 88
98.5623 135.168 47.7829 221 188 55
45.7798 129.219 92.5274 89 83 93
115.892 127.205 17.9039 41 31 30
121.656 110.317 12.3159 40 24 25
127.959 129.963 8.7271 105 94 92
81.8839 128.787 56.6885 67 55 55
94.1953 96.2428 7.03295 13 149 201
141.177 94.9651 57.9418 17 59 75
97.306 95.9898 1.47927 18 154 206
139.208 75.7495 68.927 13 145 194
134.899 93.6179 40.8762 23 148 202
63.9313 99.1916 37.1483 72 74 87
48.6394 115.744 68.7579 57 153 195
86.5643 143.468 72.9648 76 66 67
121.967 117.242 3.37894 73 67 69
68.8556 98.9726 29.3016 65 67 80
128.342 121.379 1.86239 99 79 52
88.2119 105.259 14.3385 59 141 181
77.8082 82.8963 1.24875 18 152 203
89.7003 97.6126 7.01714 14 147 204
107.211 142.3 50.1759 75 65 66
63.2538 107.227 44.4341 60 62 77
69.5111 141.468 88.0898 68 51 41
94.7177 115.291 26.8652 63 54 55
110.313 142.822 45.3954 80 69 67
159.615 89.8814 63.9689 9 144 192
108.208 102.844 3.83677 67 67 77
72.5425 78.3672 17.713 69 67 78
96.6687 85.7397 20.5964 68 67 81
123.5 102.224 28.6748 65 64 72
94.2936 87.3599 14.357 71 70 84
99.8675 115.43 18.905 82 73 74
31.8938 98.2852 64.7978 72 70 84
88.796 99.6326 10.1649 7 143 193
108.82 77.5028 23.146 15 151 201
37.073 92.5881 52.1088 20 149 204
64.2247 84.3496 19.469 17 153 203
92.6195 95.8725 1.45313 12 149 201
93.0858 114.688 22.6536 58 53 49
86.4839 129.777 55.2946 209 200 203
65.0347 138.173 86.705 21 11 10
63.734 110.582 45.5163 65 68 85
34.5331 126.264 100.856 53 51 54
75.4063 110.248 36.6515 32 30 41
146.587 126.883 10.8989 82 65 71
47.6309 92.7996 32.7725 78 76 90
39.8309 93.8705 49.2085 75 72 89
58.8447 110.473 54.9408 60 61 79
47.6013 125.471 88.9729 49 42 49
51.7832 86.5843 43.3806 16 152 202
105.345 130.459 37.904 92 76 76
111.769 100.537 15.1752 66 66 78
145.65 108.979 31.6279 239 209 85
76.9795 86.7837 12.327 59 65 79
68.4467 100.167 26.9166 68 74 88
70.7866 94.0366 21.2281 65 68 77
68.4487 105.659 40.5991 13 147 198
38.1383 88.5455 50.3453 73 72 86
89.9518 119.525 35.7999 60 52 50
114.368 130.25 24.4924 87 71 71
103.658 117.001 18.3663 56 47 48
50.322 96.45 44.658 37 91 117
92.9266 120.433 30.8983 52 43 44
61.3936 89.3742 13.1405 76 155 188
40.9184 123.873 92.5557 23 20 27
155.711 138.691 5.21793 225 191 57
59.7739 122.429 68.7098 45 38 45
54.1376 112.134 62.4666 61 63 75
80.5965 118.205 44.4539 55 46 47
48.0385 127.662 91.8341 34 31 38
95.0119 77.3023 16.5799 69 72 87
76.3081 128.162 59.7446 64 59 65
50.8623 95.6411 48.0622 48 160 206
66.555 126.719 68.2508 30 28 31
146.25 128.813 11.4264 74 65 66
49.3813 93.5596 40.0693 54 157 198
60.1806 122.464 67.6311 51 42 45
88.1703 79.5831 2.7317 66 72 86
67.2378 126.793 66.7577 20 18 23
81.511 117.632 44.5038 54 45 46
63.8837 122.468 66.8082 62 53 56
52.3331 88.3808 36.9733 20 157 211
46.6092 84.8512 36.9503 66 69 84
51.5106 121.281 73.0112 34 41 59
58.2174 128.071 77.5057 37 34 43
96.1017 131.848 49.8714 229 197 62
97.1874 131.759 61.2235 227 194 61
108.974 101.492 40.5711 82 77 73
89.4808 102.871 14.8329 50 57 73
107.247 106.673 44.8036 77 70 64
100.809 107.837 28.2464 222 194 59
66.385 77.5448 14.1641 16 157 200
97.4843 84.8341 18.568 72 75 84
66.4928 77.2776 16.4972 18 159 212
67.3277 77.0469 17.8663 56 122 157
97.6614 96.5285 18.0003 16 152 204
91.0402 132.09 26.2062 203 193 191
96.3618 95.8737 20.5907 28 153 201
88.5265 127.217 13.0481 214 211 218
106.154 111.336 46.1931 74 68 68
67.2677 73.2673 18.1142 74 71 88
87.5409 112.796 9.96109 14 65 110
91.3488 129.776 28.9667 127 116 114
90.3523 96.5553 13.4292 13 155 201
95.7256 125.988 36.9906 198 189 194
92.3543 106.139 18.2985 64 29 36
97.3221 110.148 24.6147 59 51 49
90.4864 96.4687 12.0126 14 156 204
94.3853 89.0338 17.5065 75 74 92
72.4789 83.8206 10.7062 13 153 206
94.5995 100.868 17.5566 70 70 80
96.9554 110.344 24.3011 66 57 58
82.3455 72.031 13.1264 77 81 92
97.6327 122.142 41.1337 79 70 65
51.181 78.8323 22.7415 71 73 86
88.6815 130.118 16.8491 207 202 206
85.0415 123.789 5.42108 48 54 68
95.2112 120.161 28.4809 36 30 34
101.598 91.907 21.0279 19 151 200
89.1911 98.0748 14.1377 13 158 205
108.323 107.574 48.3536 233 201 66
69.1599 69.6059 18.2498 55 62 80
95.7689 119.448 31.6429 47 41 41
100.726 92.4567 22.5498 19 151 200
95.6335 119.601 34.0899 38 33 39
68.9017 69.8509 18.8904 55 62 80
92.3577 103.585 18.4821 68 69 74
93.0337 136.37 47.9334 243 214 86
75.1173 87.201 10.1589 75 78 93
85.1172 110.461 7.82463 21 66 97
91.4129 114.011 14.1887 48 42 52
80.3928 98.077 7.80075 39 81 121
79.1433 88.1779 11.7822 71 73 86
80.9891 62.3621 14.9616 17 157 208
84.8969 110.588 7.96283 37 63 86
90.7108 129.793 23.6798 76 66 67
90.873 129.375 27.23 81 65 66
110.972 103.201 43.2631 233 203 79
80.5747 97.9534 7.03778 50 118 155
97.6799 116.442 30.2511 61 60 56
95.069 96.0963 16.2547 44 64 88
109.153 98.1219 36.5239 80 74 74
106.465 90.5394 23.0938 73 138 180
55.5095 92.9027 10.6106 78 75 94
93.8 122.842 30.7741 49 44 51
84.2023 106.612 8.98616 73 75 88
91.8285 98.4394 14.5062 13 155 203
84.6698 113.391 10.1725 22 144 193
100.547 89.7995 17.4319 16 152 200
86.9844 117.784 6.69655 62 131 170
105.121 97.7123 30.1911 82 78 79
83.0163 106.775 9.08299 71 73 86
100.309 82.2017 18.116 53 127 164
85.9234 96.4362 12.306 13 155 203
66.2598 83.984 14.2705 17 155 202
94.5398 122.498 28.9248 38 36 41
70.6631 89.7366 10.8712 29 65 87
105.489 96.1288 27.9892 72 70 75
92.2168 71.3812 12.4297 73 74 92
98.2827 130.432 62.5045 227 194 61
84.673 64.6932 13.7964 27 155 202
103.29 124.051 64.3448 81 71 79
84.5173 112.802 9.06776 14 147 203
78.4266 97.9644 6.99321 15 157 205
102.471 87.3922 20.829 16 154 203
99.4193 129.812 60.6622 227 194 61
86.2063 128.698 6.19182 187 186 204
77.9653 86.636 11.3994 74 73 87
93.3454 68.3 12.3993 75 73 86
60.471 84.8309 15.4624 19 159 210
110.39 97.4206 33.897 69 59 57
87.2539 130.779 7.98973 63 80 110
78.0921 98.0684 5.27788 17 155 201
101.147 127.772 65.0806 227 197 101
100.329 119.422 43.9449 227 194 63
88.0355 122.29 10.6977 29 29 37
85.0598 112.497 7.88595 15 149 202
84.8751 115.05 5.7495 23 156 212
92.9202 118.343 22.8336 62 56 58
92.1024 118.749 24.1143 65 59 61
90.5627 125.019 16.3739 199 196 205
94.793 118.342 30.3827 51 45 47
85.8152 105.094 9.76927 67 73 85
76.2743 80.5798 10.7793 20 151 203
85.6538 106.281 11.7748 68 70 83
102.389 98.1456 27.46 85 77 75
86.1188 81.1944 11.1669 19 157 204
63.4218 86.546 12.6034 21 159 208
95.0064 121.578 28.3563 33 27 31
86.5733 120.088 10.8396 44 39 43
104.539 97.4243 26.0845 78 69 74
67.5018 89.5496 8.90653 33 159 210
84.4592 118.111 7.10427 59 62 71
107.308 77.1057 18.1888 25 153 200
68.8876 86.697 11.4149 32 167 215
66.6037 98.1391 4.52966 19 157 206
55.1116 76.9227 20.7569 78 77 91
74.881 81.7273 13.9839 23 159 207
79.3169 87.6065 30.0991 176 162 153
68.1199 68.8801 15.615 179 165 156
69.2907 79.8093 20.7207 171 157 148
82.1688 82.56 29.7188 175 161 152
81.8221 82.6019 30.1926 176 162 153
73.1137 68.1274 17.5972 176 162 153
72.5482 69.5723 18.3857 180 166 157
85.2463 112.92 29.4578 177 163 154
87.6875 100.672 36.5237 180 166 157
91.0821 129.07 9.24655 177 163 154
90.9303 129.052 9.52658 177 163 154
83.9501 89.6742 33.6505 174 160 149
85.3783 99.6111 36.3568 183 169 160
74.7836 74.0719 20.2578 174 160 151
91.817 114.316 37.003 172 158 147
72.319 76.3295 21.0189 182 168 159
92.2723 130.631 10.0042 173 159 150
93.4701 130.776 8.42317 169 155 146
67.2812 77.0891 16.9778 184 170 161
89.5433 98.3374 41.0245 177 163 154
77.0035 76.5585 23.6422 177 163 154
76.6934 89.7456 25.141 170 156 147
66.301 77.3996 15.2071 178 164 155
77.0699 97.5993 26.3024 178 164 155
66.3776 77.3825 15.4758 175 161 152
81.4843 97.896 30.6752 184 170 161
99.9531 122.214 42.6837 183 169 160
86.1605 109.455 29.4367 178 164 155
63.5661 64.4619 8.84308 154 68 11
80.5046 62.8084 19.8623 175 161 152
71.3825 73.5575 20.4234 177 163 154
92.8532 114.603 39.5743 177 163 152
84.7337 107.889 31.6854 174 160 151
83.979 93.3056 34.991 175 161 152
87.3267 117.188 26.4927 174 160 151
82.334 110.902 24.2412 175 161 152
94.8436 98.0257 47.2952 169 155 146
94.6034 122.2 29.1309 174 160 151
82.5836 118.961 14.2515 170 156 147
96.2533 112.428 44.2236 176 162 153
89.7806 116.27 30.9302 184 170 159
94.9875 96.8525 46.7082 174 160 151
76.174 114.332 15.3612 172 158 149
82.4002 65.5846 24.0153 179 165 156
56.4045 82.6834 11.6714 176 162 153
90.6357 108.625 37.9317 170 156 147
88.2232 98.0827 40.3534 167 153 144
92.8015 104.55 45.8428 176 162 151
79.4213 100.803 26.7325 172 158 149
62.6814 76.8316 12.9795 180 167 158
76.5244 102.689 25.4699 176 162 153
78.974 115.488 16.0752 177 163 154
88.961 106.065 38.7867 172 158 147
93.5628 128.622 15.0672 178 164 155
94.0295 122.154 29.3088 168 154 145
79.6668 115.522 15.3185 175 161 152
83.6343 119.904 13.6996 175 161 152
62.1718 76.917 13.6434 180 167 158
79.3304 116.373 16.2545 174 160 151
97.2456 113.28 45.9 179 165 154
80.4502 74.2761 26.224 181 167 156
59.4461 88.3387 13.6319 183 169 160
79.4019 100.951 29.6851 175 161 152
89.8066 106.065 38.553 176 162 153
85.0562 104.304 32.5335 181 167 158
99.7593 106.422 53.2364 176 162 151
79.9373 100.789 26.4669 174 160 151
66.0608 76.5572 15.8717 177 163 154
81.0883 103.7 28.4426 174 160 151
83.936 65.3133 26.651 177 163 154
100.009 106.423 52.7043 173 159 148
86.537 117.52 22.344 167 153 144
71.0255 79.1768 21.1129 172 158 149
89.1815 112.104 33.6207 178 164 155
58.1637 94.8755 11.7011 179 165 156
80.3244 68.5357 23.9428 173 159 150
58.6902 89.175 12.3637 178 164 155
68.9066 83.7973 18.1368 172 158 149
94.9012 101.211 46.7611 173 159 150
90.0878 97.5197 42.0725 166 152 141
97.8537 134.643 9.68884 167 153 144
70.7447 106.307 16.407 174 160 151
79.7168 117.865 13.0865 172 158 149
57.8762 97.3228 7.12009 184 170 161
58.7249 89.1716 12.3512 178 164 155
78.2416 86.2974 27.2945 174 161 152
59.3135 85.0457 13.1605 178 164 155
82.4677 120.133 12.1413 176 162 153
58.2248 88.2919 12.7056 175 161 152
81.3503 73.2098 25.9756 174 160 149
62.0889 80.7151 13.3417 173 159 150
97.4412 108.693 51.1715 179 165 156
64.8466 89.9324 14.2656 178 164 155
90.5816 97.0167 43.0389 169 155 146
80.6772 113.795 18.5433 178 164 155
80.5871 64.9482 21.1078 174 160 151
78.5054 102.538 27.1501 174 160 151
99.6016 112.464 51.7114 175 161 152
64.1839 89.9928 15.4785 173 159 150
90.7011 124.15 20.02 167 153 144
66.4748 85.9344 17.8156 174 160 151
62.8738 89.2666 13.7225 181 167 158
60.434 75.5361 13.1054 175 162 153
83.3949 103.446 30.6248 178 164 155
65.2696 91.9054 15.27 179 165 156
90.6269 105.847 40.2821 166 152 141
67.2579 95.7041 18.2703 177 163 154
91.8472 121.336 28.2865 172 158 149
104.119 130.808 34.8195 176 162 153
92.247 122.92 27.776 171 157 148
68.2476 91.148 18.9054 178 164 155
92.3527 100.19 44.829 179 165 156
67.1627 93.1472 18.8789 187 173 164
84.9206 119.604 18.572 172 158 149
59.9367 70.9499 9.55745 182 169 160
86.0606 91.5002 22.7753 0 0 0
108.22 120.202 29.078 187 174 165
82.1265 87.3359 26.4819 0 0 0
98.9106 108.142 20.8296 179 166 157
95.7527 105.723 20.9859 200 68 75
106.821 102.958 43.9328 67 213 0
89.5204 125.702 10.4582 180 167 158
104.975 107.504 34.0059 231 160 0
72.2274 77.3045 29.9563 0 0 0
108.918 122.904 31.9585 188 175 166
67.978 91.3021 0.968077 0 0 0
69.9834 91.7149 1.80224 0 0 0
61.0472 73.015 16.5162 0 0 0
70.9052 76.5577 23.4031 0 0 0
94.2427 109.599 18.6573 184 171 162
64.7581 77.6431 18.228 0 0 0
106.268 118.195 25.5872 190 177 168
64.5815 77.6762 18.1272 0 0 0
100.31 108.6 26.1932 0 0 0
81.5864 95.9282 12.326 0 0 0
73.8095 94.2746 1.14118 0 0 0
79.874 94.0464 11.4685 0 0 0
66.4802 77.2186 18.6455 0 0 0
100.054 108.749 26.4456 179 166 157
103.896 110.943 31.3666 187 174 165
86.4505 122.033 1.75422 184 171 162
61.6692 71.4359 21.7698 0 0 0
98.9382 108.023 27.0884 0 0 0
81.9431 106.345 0.878667 183 170 161
102.434 112.829 25.6572 184 171 162
95.8381 121.668 16.0653 184 171 162
69.7196 67.9972 44.2199 0 0 0
101.112 112.269 19.7575 182 169 160
76.9394 81.788 24.9358 0 0 0
101.986 125.329 19.2041 183 170 161
102.984 125.663 17.8798 184 171 162
85.5353 99.5732 11.6184 0 0 0
83.7234 99.1562 13.9363 0 0 0
55.9968 67.3408 25.5868 0 0 0
104.888 126.349 29.3204 184 171 162
98.1757 111.137 22.9512 181 168 159
66.0525 74.5123 20.5268 0 0 0
64.139 74.3005 22.811 0 0 0
87.4597 102.376 15.5081 32 196 185
65.502 74.4514 21.2135 0 0 0
94.117 106.376 15.0556 0 0 0
91.7204 102.614 20.4711 0 0 0
96.5503 95.1579 33.9008 0 0 0
111.772 123.057 31.0084 188 175 166
85.7127 112.989 4.92947 183 170 161
93.2868 102.357 18.8348 0 0 0
83.8018 90.9388 16.5689 0 0 0
72.7019 92.9062 3.89328 0 0 0
58.7977 77.1402 6.97382 0 0 0
98.2611 112.485 24.2745 182 169 160
82.5108 91.7275 22.5304 0 0 0
89.5832 103.6 17.3282 121 196 16
58.3843 77.0858 7.81369 0 0 0
96.5757 113.543 20.8614 186 173 164
90.9587 95.3027 23.0963 0 0 0
85.0689 108.553 9.57589 187 174 165
86.0972 108.243 7.27374 183 170 161
76.6255 96.4205 7.14959 161 246 67
84.8032 107.886 8.49785 186 173 164
98.6334 117.282 20.1218 178 165 156
72.824 94.0375 4.13046 0 0 0
102.995 97.2092 40.1341 0 0 0
90.6919 85.482 42.1402 0 0 0
74.5989 96.0817 4.75697 90 57 39
91.0827 84.3872 39.9072 0 0 0
74.4535 87.8847 11.7583 0 0 0
106.62 109.639 28.7959 187 174 165
92.2197 111.735 13.3601 184 171 162
77.7447 95.1857 4.71785 0 0 0
96.1355 124.933 14.8562 187 174 165
89.5821 96.565 25.5399 0 0 0
102.645 111.111 25.5407 182 169 160
94.4899 111.677 15.2538 183 170 161
81.5578 96.1467 5.92002 17 0 0
72.8144 71.9009 39.4016 0 0 0
82.26 89.2654 17.9441 0 0 0
90.8741 106.656 15.6086 0 0 0
93.855 88.0221 40.968 0 0 0
81.8667 91.6139 18.0202 0 0 0
89.5457 119.925 11.0366 185 172 163
109.035 113.694 33.3218 187 174 165
108.822 113.636 33.321 191 178 169
51.1425 68.8997 13.2062 0 0 0
110.072 114.138 32.8669 187 174 165
86.2058 115.85 5.94716 183 170 161
92.5116 108.265 14.2848 182 169 160
65.3972 84.8782 0.165087 0 0 0
77.3426 89.5705 16.0332 0 0 0
85.9558 116.733 6.60503 179 166 157
94.496 113.248 17.6829 190 177 168
82.9398 117.989 3.77404 190 177 168
65.008 85.1077 0.0849426 0 0 0
91.5021 108.507 17.605 180 167 158
97.2139 118.075 21.2419 182 169 160
63.7293 84.5921 2.25447 0 0 0
87.56 126.161 3.53807 191 178 169
86.8039 117.003 5.00299 182 169 160
97.4654 118.152 20.9785 182 169 160
80.5713 83.0395 27.6114 0 0 0
72.2554 78.996 20.0744 0 0 0
70.5431 78.7701 22.3517 0 0 0
74.3318 91.2951 10.5253 0 0 0
86.5054 117.393 5.97199 181 168 159
95.897 92.0033 36.9857 0 0 0
92.475 133.724 9.30777 189 176 167
97.8961 114.33 22.8646 182 169 160
94.7903 118.176 13.341 184 171 162
92.7758 117.069 15.5973 184 171 162
64.4227 84.6453 1.92578 0 0 0
86.7439 116.553 2.5789 186 173 164
96.1159 116.122 13.9268 188 175 166
92.8202 117.887 13.6127 178 165 156
68.8124 68.4178 42.6012 0 0 0
96.804 117.526 19.7731 183 170 161
92.6755 125.629 15.1315 186 173 164
97.142 87.3443 45.8017 0 0 0
88.0265 127.026 3.1196 190 177 168
72.8875 89.201 3.06897 0 0 0
112.598 120.703 31.0893 183 170 161
61.9164 80.1044 5.89728 0 0 0
98.365 118.245 17.1252 181 168 159
92.1254 83.7318 45.9566 0 0 0
97.5504 115.457 15.1554 187 174 165
93.7505 117.37 14.1943 180 167 158
104.214 100.996 36.934 0 0 0
96.0798 115.024 17.0577 185 172 163
94.233 93.8035 35.8406 0 0 0
64.9272 66.3141 40.8503 0 0 0
87.0291 120.467 5.92048 183 170 161
64.1029 92.0577 6.42318 0 0 0
95.3172 114.373 15.1384 192 179 170
88.5747 100.71 17.7571 0 0 0
81.3629 95.4664 16.0224 0 0 0
95.4614 85.958 43.2647 0 0 0
56.1253 61.8466 38.5901 0 0 0
84.9974 114.725 2.91244 184 171 162
63.7441 80.3724 3.85537 0 0 0
102.16 118.906 21.1723 182 169 160
64.2334 66.0865 41.0697 0 0 0
