ply
format ascii 1.0
element vertex 162
property float x
property float y
property float z
property uchar red
property uchar green
property uchar blue
end_header
42.3081 81.8931 76.2572 71 73 85
137.986 79.7916 71.5057 36 64 86
-1543.3 507.461 3068.46 55 62 80
86.0789 133.52 61.1321 52 33 0
87.955 133.777 58.3177 52 33 0
101.69 107.689 8.48486 128 128 92
-163.336 131.985 452.665 74 76 89
103.486 106.604 7.76065 128 128 111
-174.485 134.91 473.075 74 76 89
136.136 61.7792 70.4841 17 128 128
49.8805 137.952 104.508 128 128 128
74.6743 92.3507 17.6547 69 75 89
203.507 100.982 105.376 70 50 15
148.853 58.7776 142.143 18 128 128
137.686 76.5141 60.0859 71 71 83
236.544 76.4771 173.045 24 128 128
228.445 106.824 122.746 128 128 63
227.148 77.4831 158.654 24 128 128
92.0014 103.02 9.65219 38 60 81
84.5093 103.094 23.2966 50 57 73
77.095 94.5496 16.0493 66 74 87
151.515 74.3683 83.3781 71 71 83
157.815 90.987 72.7141 22 128 128
71.3918 132.216 74.42 128 128 128
233.996 104.096 135.781 128 128 63
43.6271 128.904 96.0994 128 41 55
46.0061 97.8885 47.1748 70 78 91
88.102 103 10.2891 32 128 128
113.327 64.4444 40.0598 74 80 94
90.2399 102.905 6.64677 32 128 128
93.0119 106.122 17.6164 64 29 36
126.917 77.4427 36.7085 76 76 88
127.023 96.2649 26.7765 36 100 125
83.4425 103.207 18.7601 32 128 128
145.478 94.6073 46.0309 17 128 128
118.243 96.5964 30.209 13 128 128
87.7574 93.5379 1.67559 70 77 87
97.1125 69.5499 55.0759 77 76 90
168.196 110.255 57.4238 69 57 45
358.797 -29.0876 514.46 69 80 98
-1445.25 480.834 2882.09 55 62 80
45.7798 129.219 92.5274 128 41 55
-158.404 130.628 440.931 59 62 79
115.892 127.205 17.9039 73 58 53
121.656 110.317 12.3159 66 57 58
532.611 -84.1969 836.869 69 80 98
127.959 129.963 8.7271 128 124 59
81.8839 128.787 56.6885 128 128 128
94.1953 96.2428 7.03295 13 128 128
141.177 94.9651 57.9418 69 73 84
38.9307 135.652 110.532 67 55 57
-154.403 129.581 433.821 59 62 79
97.306 95.9898 1.47927 13 128 128
-551.492 238.14 1190.76 55 62 80
139.208 75.7495 68.927 61 128 128
168.905 120.008 47.3884 128 128 61
270.52 87.3246 200.808 79 75 76
63.9313 99.1916 37.1483 50 118 128
48.6394 115.744 68.7579 65 61 78
82.1969 70.9926 10.8349 77 76 90
86.5643 143.468 72.9648 128 128 69
-508.249 224.671 1022.72 54 67 83
121.967 117.242 3.37894 61 60 56
274.796 75.2339 196.125 128 128 65
68.8556 98.9726 29.3016 39 81 121
128.342 121.379 1.86239 42 38 39
198.246 113.455 82.6915 60 44 28
88.2119 105.259 14.3385 50 52 67
240.167 90.9537 163.32 80 74 76
77.8082 82.8963 1.24875 13 128 128
89.7003 97.6126 7.01714 13 128 128
107.211 142.3 50.1759 88 78 79
63.2538 107.227 44.4341 71 73 86
69.5111 141.468 88.0898 128 128 68
104.943 114.879 10.4439 84 78 78
-167381 50794.3 303899 22 128 128
224.736 66.3428 146.061 75 74 80
215.033 92.4836 125.773 80 74 76
108.208 102.844 3.83677 64 63 69
72.5425 78.3672 17.713 66 72 86
96.6687 85.7397 20.5964 71 73 86
123.5 102.224 28.6748 64 63 69
94.2936 87.3599 14.357 71 73 88
99.8675 115.43 18.905 53 47 47
31.8938 98.2852 64.7978 74 76 89
88.796 99.6326 10.1649 13 128 128
580.075 -88.2198 901.808 19 128 128
108.82 77.5028 23.146 17 128 128
37.073 92.5881 52.1088 80 78 89
64.2247 84.3496 19.469 17 128 128
188.603 80.075 106.537 17 128 128
92.6195 95.8725 1.45313 13 128 128
93.0858 114.688 22.6536 60 54 56
399.666 -35.2566 569.983 22 128 128
258.865 74.3314 198.275 73 128 128
86.4839 129.777 55.2946 80 71 72
65.0347 138.173 86.705 128 128 128
63.734 110.582 45.5163 37 63 86
31.5938 127.022 104.413 128 25 46
34.5331 126.264 100.856 128 39 55
75.4063 110.248 36.6515 31 44 63
146.587 126.883 10.8989 128 128 67
47.6309 92.7996 32.7725 75 75 85
39.8309 93.8705 49.2085 75 75 85
4063.96 -1097.86 7263.09 55 71 96
58.8447 110.473 54.9408 21 66 97
47.6013 125.471 88.9729 58 46 48
51.7832 86.5843 43.3806 17 128 128
105.345 130.459 37.904 74 63 59
111.769 100.537 15.1752 66 66 76
145.65 108.979 31.6279 128 128 107
215.9 90.1021 124.515 82 78 79
283.925 103.055 180.107 77 70 64
76.9795 86.7837 12.327 74 73 87
68.4467 100.167 26.9166 34 128 128
70.7866 94.0366 21.2281 76 75 93
840.244 -172.561 1353.17 18 128 128
68.4487 105.659 40.5991 67 73 85
38.1383 88.5455 50.3453 26 128 128
89.9518 119.525 35.7999 51 45 47
114.368 130.25 24.4924 81 72 77
103.658 117.001 18.3663 50 44 44
50.322 96.45 44.658 36 128 128
92.9266 120.433 30.8983 53 47 49
61.3936 89.3742 13.1405 76 74 87
40.9184 123.873 92.5557 128 128 128
155.711 138.691 5.21793 128 128 61
1304.54 -315.15 2188.41 18 128 128
196.73 89.1159 104.454 79 74 80
238.605 83.4126 161.436 76 79 84
59.7739 122.429 68.7098 128 128 128
54.1376 112.134 62.4666 15 128 128
8922.68 -2591.33 15483.9 22 128 128
80.5965 118.205 44.4539 65 59 61
-125.689 121.96 381.662 23 128 128
48.0385 127.662 91.8341 128 128 128
95.0119 77.3023 16.5799 24 128 128
50.8623 95.6411 48.0622 38 128 128
66.555 126.719 68.2508 81 65 66
146.25 128.813 11.4264 128 128 77
49.3813 93.5596 40.0693 75 75 87
220.654 94.1301 132.99 77 71 73
209.211 91.6707 125.685 74 68 70
60.1806 122.464 67.6311 128 128 128
191.571 91.292 98.6854 78 69 74
88.1703 79.5831 2.7317 19 128 128
405.366 46.0638 389.639 85 79 79
67.2378 126.793 66.7577 81 65 66
81.511 117.632 44.5038 61 55 55
63.8837 122.468 66.8082 60 55 61
194.38 92.633 103.556 74 68 70
52.3331 88.3808 36.9733 21 128 128
194.608 92.2322 101.042 71 69 70
46.6092 84.8512 36.9503 78 76 97
325.125 61.2629 275.386 128 128 93
251.613 14.4258 331.882 24 128 128
81.0287 106.399 19.9948 68 70 83
58.2174 128.071 77.5057 128 128 128
193.868 90.4823 112.798 21 128 128
115.589 83.0162 48.6974 77 73 90
185.661 84.0326 105.379 19 128 128
321.84 77.1989 261.752 128 128 65
